{
    "asset" : {
        "generator" : "Khronos glTF Blender I/O v3.4.50",
        "version" : "2.0"
    },
    "extensionsUsed" : [
        "KHR_materials_specular",
        "KHR_materials_ior"
    ],
    "scene" : 0,
    "scenes" : [
        {
            "name" : "Scene",
            "nodes" : [
                0
            ]
        }
    ],
    "nodes" : [
        {
            "mesh" : 0,
            "name" : "Text.024",
            "rotation" : [
                0.7057186961174011,
                0.0442851223051548,
                0.04428499564528465,
                0.7057186365127563
            ],
            "scale" : [
                6.557652473449707,
                6.557652473449707,
                6.557652473449707
            ],
            "translation" : [
                -3.1929221153259277,
                2.773167133331299,
                -0.6918079853057861
            ]
        }
    ],
    "animations" : [
        {
            "channels" : [
                {
                    "sampler" : 0,
                    "target" : {
                        "node" : 0,
                        "path" : "translation"
                    }
                },
                {
                    "sampler" : 1,
                    "target" : {
                        "node" : 0,
                        "path" : "rotation"
                    }
                },
                {
                    "sampler" : 2,
                    "target" : {
                        "node" : 0,
                        "path" : "scale"
                    }
                }
            ],
            "name" : "Text.008",
            "samplers" : [
                {
                    "input" : 8,
                    "interpolation" : "LINEAR",
                    "output" : 9
                },
                {
                    "input" : 8,
                    "interpolation" : "LINEAR",
                    "output" : 10
                },
                {
                    "input" : 8,
                    "interpolation" : "LINEAR",
                    "output" : 11
                }
            ]
        }
    ],
    "materials" : [
        {
            "doubleSided" : true,
            "extensions" : {
                "KHR_materials_specular" : {
                    "specularColorFactor" : [
                        0,
                        0,
                        0
                    ]
                },
                "KHR_materials_ior" : {
                    "ior" : 1.4500000476837158
                }
            },
            "name" : "Material.039",
            "pbrMetallicRoughness" : {
                "metallicFactor" : 0
            }
        },
        {
            "doubleSided" : true,
            "extensions" : {
                "KHR_materials_specular" : {
                    "specularColorFactor" : [
                        0,
                        0,
                        0
                    ]
                },
                "KHR_materials_ior" : {
                    "ior" : 1.4500000476837158
                }
            },
            "name" : "Material.040",
            "pbrMetallicRoughness" : {
                "baseColorFactor" : [
                    0,
                    0,
                    0,
                    1
                ],
                "metallicFactor" : 0
            }
        }
    ],
    "meshes" : [
        {
            "name" : "Text.036",
            "primitives" : [
                {
                    "attributes" : {
                        "POSITION" : 0,
                        "TEXCOORD_0" : 1,
                        "NORMAL" : 2
                    },
                    "indices" : 3,
                    "material" : 0
                },
                {
                    "attributes" : {
                        "POSITION" : 4,
                        "TEXCOORD_0" : 5,
                        "NORMAL" : 6
                    },
                    "indices" : 7,
                    "material" : 1
                }
            ]
        }
    ],
    "accessors" : [
        {
            "bufferView" : 0,
            "componentType" : 5126,
            "count" : 377,
            "max" : [
                0.16321539878845215,
                0.060273971408605576,
                0.16505300998687744
            ],
            "min" : [
                -0.16345739364624023,
                -0.049631424248218536,
                -0.16952432692050934
            ],
            "type" : "VEC3"
        },
        {
            "bufferView" : 1,
            "componentType" : 5126,
            "count" : 377,
            "type" : "VEC2"
        },
        {
            "bufferView" : 2,
            "componentType" : 5126,
            "count" : 377,
            "type" : "VEC3"
        },
        {
            "bufferView" : 3,
            "componentType" : 5123,
            "count" : 453,
            "type" : "SCALAR"
        },
        {
            "bufferView" : 4,
            "componentType" : 5126,
            "count" : 403,
            "max" : [
                0.16321539878845215,
                0.060273971408605576,
                0.16505300998687744
            ],
            "min" : [
                -0.16345739364624023,
                -0.049631424248218536,
                -0.16952432692050934
            ],
            "type" : "VEC3"
        },
        {
            "bufferView" : 5,
            "componentType" : 5126,
            "count" : 403,
            "type" : "VEC2"
        },
        {
            "bufferView" : 6,
            "componentType" : 5126,
            "count" : 403,
            "type" : "VEC3"
        },
        {
            "bufferView" : 7,
            "componentType" : 5123,
            "count" : 459,
            "type" : "SCALAR"
        },
        {
            "bufferView" : 8,
            "componentType" : 5126,
            "count" : 219,
            "max" : [
                9.125
            ],
            "min" : [
                0.041666666666666664
            ],
            "type" : "SCALAR"
        },
        {
            "bufferView" : 9,
            "componentType" : 5126,
            "count" : 219,
            "type" : "VEC3"
        },
        {
            "bufferView" : 10,
            "componentType" : 5126,
            "count" : 219,
            "type" : "VEC4"
        },
        {
            "bufferView" : 11,
            "componentType" : 5126,
            "count" : 219,
            "type" : "VEC3"
        }
    ],
    "bufferViews" : [
        {
            "buffer" : 0,
            "byteLength" : 4524,
            "byteOffset" : 0,
            "target" : 34962
        },
        {
            "buffer" : 0,
            "byteLength" : 3016,
            "byteOffset" : 4524,
            "target" : 34962
        },
        {
            "buffer" : 0,
            "byteLength" : 4524,
            "byteOffset" : 7540,
            "target" : 34962
        },
        {
            "buffer" : 0,
            "byteLength" : 906,
            "byteOffset" : 12064,
            "target" : 34963
        },
        {
            "buffer" : 0,
            "byteLength" : 4836,
            "byteOffset" : 12972,
            "target" : 34962
        },
        {
            "buffer" : 0,
            "byteLength" : 3224,
            "byteOffset" : 17808,
            "target" : 34962
        },
        {
            "buffer" : 0,
            "byteLength" : 4836,
            "byteOffset" : 21032,
            "target" : 34962
        },
        {
            "buffer" : 0,
            "byteLength" : 918,
            "byteOffset" : 25868,
            "target" : 34963
        },
        {
            "buffer" : 0,
            "byteLength" : 876,
            "byteOffset" : 26788
        },
        {
            "buffer" : 0,
            "byteLength" : 2628,
            "byteOffset" : 27664
        },
        {
            "buffer" : 0,
            "byteLength" : 3504,
            "byteOffset" : 30292
        },
        {
            "buffer" : 0,
            "byteLength" : 2628,
            "byteOffset" : 33796
        }
    ],
    "buffers" : [
        {
            "byteLength" : 36424,
            "uri" : "data:application/octet-stream;base64,"
        }
    ]
}
